<svg width="92" height="91" viewBox="0 0 92 91" fill="none" xmlns="http://www.w3.org/2000/svg">
<circle opacity="0.1" cx="46.4921" cy="45.5" r="45.5" fill="#3772FF"/>
<path d="M32.1953 46.3116C31.8469 46.3116 31.4986 46.1833 31.2236 45.9083L29.0053 43.6899L26.7869 45.9083C26.2553 46.4399 25.3753 46.4399 24.8436 45.9083C24.3119 45.3766 24.3119 44.4966 24.8436 43.965L28.0336 40.775C28.5653 40.2433 29.4453 40.2433 29.9769 40.775L33.1669 43.965C33.6986 44.4966 33.6986 45.3766 33.1669 45.9083C32.9103 46.1833 32.5436 46.3116 32.1953 46.3116Z" fill="#3772FF"/>
<path d="M62.9765 51.6284C62.6282 51.6284 62.2799 51.5 62.0049 51.225L58.8149 48.035C58.2832 47.5033 58.2832 46.6233 58.8149 46.0917C59.3465 45.56 60.2265 45.56 60.7582 46.0917L62.9765 48.3101L65.1949 46.0917C65.7265 45.56 66.6065 45.56 67.1382 46.0917C67.6699 46.6233 67.6699 47.5033 67.1382 48.035L63.9482 51.225C63.6915 51.4817 63.3249 51.6284 62.9765 51.6284Z" fill="#3772FF"/>
<path d="M62.9767 51.6284C62.225 51.6284 61.6017 51.005 61.6017 50.2534V46C61.6017 37.4017 54.5984 30.3983 46 30.3983C41.2517 30.3983 36.815 32.525 33.8267 36.2467C33.35 36.8333 32.4884 36.925 31.9017 36.4667C31.315 35.99 31.205 35.1284 31.6817 34.5417C35.1834 30.16 40.4084 27.6667 46 27.6667C56.12 27.6667 64.3517 35.8984 64.3517 46.0184V50.2717C64.3517 51.0051 63.7467 51.6284 62.9767 51.6284Z" fill="#3772FF"/>
<path d="M46.0004 64.3516C35.8804 64.3516 27.6487 56.1199 27.6487 45.9999V41.7465C27.6487 40.9949 28.272 40.3715 29.0237 40.3715C29.7754 40.3715 30.3987 40.9949 30.3987 41.7465V45.9999C30.3987 54.5982 37.402 61.6016 46.0004 61.6016C50.7487 61.6016 55.1854 59.4749 58.1737 55.7532C58.6504 55.1665 59.512 55.0566 60.0987 55.5332C60.6854 56.0099 60.7954 56.8715 60.3187 57.4582C56.817 61.8399 51.592 64.3516 46.0004 64.3516Z" fill="#3772FF"/>
<path d="M48.5299 47.375H40.4999C39.7483 47.375 39.1249 46.7516 39.1249 46V39.5833C39.1249 38.8316 39.7483 38.2083 40.4999 38.2083H48.5299C50.9683 38.2083 53.1133 40.3533 53.1133 42.7916C53.1133 45.3216 51.0416 47.375 48.5299 47.375ZM41.8749 44.625H48.5116C49.5199 44.625 50.3449 43.8 50.3449 42.7916C50.3449 41.9666 49.5199 40.9583 48.5116 40.9583H41.8749V44.625Z" fill="#3772FF"/>
<path d="M49.6666 53.7917H40.4999C39.7483 53.7917 39.1249 53.1683 39.1249 52.4167V46C39.1249 45.2483 39.7483 44.625 40.4999 44.625H49.6666C52.4533 44.625 54.7083 46.6783 54.7083 49.2083C54.7083 51.7383 52.4533 53.7917 49.6666 53.7917ZM41.8749 51.0417H49.6666C50.9316 51.0417 51.9583 50.2167 51.9583 49.2083C51.9583 48.2 50.9316 47.375 49.6666 47.375H41.8749V51.0417Z" fill="#3772FF"/>
<path d="M45.6329 57C44.8813 57 44.2579 56.3767 44.2579 55.625V52.4167C44.2579 51.665 44.8813 51.0417 45.6329 51.0417C46.3846 51.0417 47.0079 51.665 47.0079 52.4167V55.625C47.0079 56.3767 46.3846 57 45.6329 57Z" fill="#3772FF"/>
<path d="M45.6329 40.9583C44.8813 40.9583 44.2579 40.335 44.2579 39.5833V36.375C44.2579 35.6233 44.8813 35 45.6329 35C46.3846 35 47.0079 35.6233 47.0079 36.375V39.5833C47.0079 40.335 46.3846 40.9583 45.6329 40.9583Z" fill="#3772FF"/>
</svg>
