<svg width="91" height="91" viewBox="0 0 91 91" fill="none" xmlns="http://www.w3.org/2000/svg">
<circle opacity="0.1" cx="45.5" cy="45.5" r="45.5" fill="#AB21EC"/>
<path d="M51.8056 67.4866C51.311 67.4866 50.853 67.2117 50.6148 66.79C50.3767 66.3684 50.3767 65.8367 50.6332 65.415L52.5567 62.2067C52.9414 61.5467 53.7841 61.345 54.4436 61.73C55.1031 62.115 55.3046 62.9583 54.9199 63.6183L54.4252 64.4433C59.4814 63.2516 63.2735 58.7049 63.2735 53.2783C63.2735 52.5266 63.8963 51.9033 64.6474 51.9033C65.3985 51.9033 66.0214 52.5266 66.0214 53.2783C66.003 61.1066 59.6279 67.4866 51.8056 67.4866Z" fill="#AB21EC"/>
<path d="M24.3263 39.9866C23.5752 39.9866 22.9524 39.3633 22.9524 38.6116C22.9524 30.7833 29.3275 24.4033 37.1498 24.4033C37.6444 24.4033 38.1024 24.6783 38.3406 25.0999C38.5787 25.5216 38.5787 26.0533 38.3222 26.4749L36.3987 29.6833C36.014 30.3433 35.1713 30.545 34.5118 30.16C33.8523 29.775 33.6508 28.9317 34.0355 28.2717L34.5302 27.4467C29.474 28.6383 25.6819 33.1849 25.6819 38.6116C25.7003 39.3633 25.0774 39.9866 24.3263 39.9866Z" fill="#AB21EC"/>
<path d="M39.7697 53.4799H34.622C33.8709 53.4799 33.248 52.8566 33.248 52.1049V47.9799C33.248 47.2283 33.8709 46.6049 34.622 46.6049H39.7697C41.6016 46.6049 43.2137 48.2183 43.2137 50.0516C43.2137 51.9216 41.6566 53.4799 39.7697 53.4799ZM35.9959 50.7299H39.7697C40.1544 50.7299 40.4658 50.4182 40.4658 50.0332C40.4658 49.7582 40.1544 49.3366 39.7697 49.3366H35.9959V50.7299Z" fill="#AB21EC"/>
<path d="M40.502 57.6049H34.6032C33.8521 57.6049 33.2292 56.9816 33.2292 56.2299V52.1049C33.2292 51.3533 33.8521 50.7299 34.6032 50.7299H40.502C42.5538 50.7299 44.2391 52.2699 44.2391 54.1766C44.2391 56.0833 42.5721 57.6049 40.502 57.6049ZM35.9955 54.8549H40.5203C41.1065 54.8549 41.5096 54.4882 41.5096 54.1582C41.5096 53.8282 41.1065 53.4616 40.5203 53.4616H35.9955V54.8549Z" fill="#AB21EC"/>
<path d="M37.9191 59.6582C37.168 59.6582 36.5451 59.0349 36.5451 58.2832V56.2115C36.5451 55.4599 37.168 54.8365 37.9191 54.8365C38.6702 54.8365 39.293 55.4599 39.293 56.2115V58.2832C39.293 59.0532 38.6702 59.6582 37.9191 59.6582Z" fill="#AB21EC"/>
<path d="M37.9191 49.3366C37.168 49.3366 36.5451 48.7132 36.5451 47.9616V45.8899C36.5451 45.1382 37.168 44.5149 37.9191 44.5149C38.6702 44.5149 39.293 45.1382 39.293 45.8899V47.9616C39.293 48.7316 38.6702 49.3366 37.9191 49.3366Z" fill="#AB21EC"/>
<path d="M38.3772 64.7915C31.3792 64.7915 25.7003 59.0899 25.7003 52.1049C25.7003 45.1199 31.3976 39.4182 38.3772 39.4182C38.7069 39.4182 39.0001 39.4365 39.3298 39.4549C45.54 39.9315 50.5595 44.9548 51.0175 51.1332C51.0358 51.5365 51.0542 51.8116 51.0542 52.1049C51.0725 59.0899 45.3752 64.7915 38.3772 64.7915ZM38.3772 42.1499C32.8997 42.1499 28.4481 46.6049 28.4481 52.0865C28.4481 57.5682 32.8997 62.0232 38.3772 62.0232C43.8547 62.0232 48.3246 57.5682 48.3246 52.0865C48.3246 51.8482 48.3063 51.6099 48.2879 51.3715C47.9216 46.4582 43.9829 42.5348 39.1466 42.1682C38.9085 42.1682 38.652 42.1499 38.3772 42.1499Z" fill="#AB21EC"/>
<path d="M50.5781 52.6H49.6805C48.966 52.6 48.3615 52.0499 48.3065 51.3349C47.9402 46.4766 44.0198 42.5533 39.1652 42.1866C38.4508 42.1316 37.9012 41.5266 37.9012 40.8116V39.9133C37.9012 32.91 43.5985 27.2267 50.5965 27.2267C57.5944 27.2267 63.2734 32.9283 63.2734 39.9133C63.2734 46.8983 57.5578 52.6 50.5781 52.6ZM40.6308 39.6017C45.7968 40.5367 49.937 44.6616 50.8712 49.85C56.2205 49.685 60.5072 45.285 60.5072 39.9133C60.5072 34.4317 56.0556 29.9767 50.5781 29.9767C45.1923 29.9584 40.7956 34.2484 40.6308 39.6017Z" fill="#AB21EC"/>
</svg>
