<svg width="91" height="91" viewBox="0 0 91 91" fill="none" xmlns="http://www.w3.org/2000/svg">
<g opacity="0.1" filter="url(#filter0_b_507_10870)">
<circle cx="45.5" cy="45.5" r="45.5" fill="#D33535"/>
</g>
<path d="M48.5423 55.9367H43.9406C40.9339 55.9367 38.4956 53.4067 38.4956 50.29C38.4956 49.5384 39.1189 48.915 39.8706 48.915C40.6223 48.915 41.2456 49.5384 41.2456 50.29C41.2456 51.885 42.4556 53.1867 43.9406 53.1867H48.5423C49.7339 53.1867 50.7239 52.1234 50.7239 50.84C50.7239 49.245 50.1556 48.9334 49.2206 48.6034L41.8323 46C40.4023 45.505 38.4773 44.4417 38.4773 41.16C38.4773 38.3367 40.6956 36.0634 43.4089 36.0634H48.0106C51.0173 36.0634 53.4556 38.5934 53.4556 41.71C53.4556 42.4617 52.8323 43.085 52.0806 43.085C51.3289 43.085 50.7056 42.4617 50.7056 41.71C50.7056 40.115 49.4956 38.8134 48.0106 38.8134H43.4089C42.2173 38.8134 41.2273 39.8767 41.2273 41.16C41.2273 42.755 41.7956 43.0667 42.7306 43.3967L50.1189 46C51.5489 46.495 53.4739 47.5584 53.4739 50.84C53.4556 53.645 51.2556 55.9367 48.5423 55.9367Z" fill="#D33535"/>
<path d="M45.9756 58.375C45.2239 58.375 44.6006 57.7517 44.6006 57V35C44.6006 34.2483 45.2239 33.625 45.9756 33.625C46.7273 33.625 47.3506 34.2483 47.3506 35V57C47.3506 57.7517 46.7273 58.375 45.9756 58.375Z" fill="#D33535"/>
<path d="M45.9756 65.7083C35.1039 65.7083 26.2672 56.8716 26.2672 46C26.2672 35.1283 35.1039 26.2916 45.9756 26.2916C56.8472 26.2916 65.6839 35.1283 65.6839 46C65.6839 56.8716 56.8472 65.7083 45.9756 65.7083ZM45.9756 29.0416C36.6256 29.0416 29.0172 36.65 29.0172 46C29.0172 55.35 36.6256 62.9583 45.9756 62.9583C55.3256 62.9583 62.9339 55.35 62.9339 46C62.9339 36.65 55.3256 29.0416 45.9756 29.0416Z" fill="#D33535"/>
<defs>
<filter id="filter0_b_507_10870" x="-14" y="-14" width="119" height="119" filterUnits="userSpaceOnUse" color-interpolation-filters="sRGB">
<feFlood flood-opacity="0" result="BackgroundImageFix"/>
<feGaussianBlur in="BackgroundImageFix" stdDeviation="7"/>
<feComposite in2="SourceAlpha" operator="in" result="effect1_backgroundBlur_507_10870"/>
<feBlend mode="normal" in="SourceGraphic" in2="effect1_backgroundBlur_507_10870" result="shape"/>
</filter>
</defs>
</svg>
