<?xml version="1.0" encoding="utf-8"?>
<!-- Generator: Adobe Illustrator 26.3.1, SVG Export Plug-In . SVG Version: 6.00 Build 0)  -->
<svg version="1.1" id="Layer_1" xmlns="http://www.w3.org/2000/svg" xmlns:xlink="http://www.w3.org/1999/xlink" x="0px" y="0px"
	 viewBox="0 0 592.9 469.1" style="enable-background:new 0 0 592.9 469.1;" xml:space="preserve">
<style type="text/css">
	.st0{opacity:0.3;}
	.st1{opacity:0.3;fill:url(#SVGID_1_);enable-background:new    ;}
	.st2{opacity:0.3;fill:#0F054C;enable-background:new    ;}
	.st3{opacity:0.3;fill:url(#SVGID_00000177467360619297154690000017792795221932538755_);enable-background:new    ;}
	.st4{fill:#42E8E0;}
	.st5{opacity:0.4;fill:#42E8E0;enable-background:new    ;}
	.st6{fill:url(#SVGID_00000076566011127073284330000018322910820918642068_);}
	.st7{fill:url(#SVGID_00000013160947944267552480000010948628439876048268_);}
	.st8{fill:#FFFFFF;}
	.st9{fill:url(#SVGID_00000147909463928602559960000015930271195604770727_);}
	.st10{opacity:0.3;fill:url(#SVGID_00000160149245175250171160000015459158502616618379_);enable-background:new    ;}
	.st11{opacity:0.3;fill:url(#SVGID_00000085219483400227134350000007108220197456674445_);enable-background:new    ;}
	.st12{fill:url(#SVGID_00000072959463084820908210000010265707744054223546_);}
	.st13{fill:url(#SVGID_00000021098817578957003480000006183487273232143759_);}
	.st14{fill:#5351AF;}
	.st15{fill:url(#SVGID_00000175286784912708893480000010131715656386829242_);}
	.st16{opacity:0.3;fill:url(#SVGID_00000042735884300328847360000016154062535386320044_);enable-background:new    ;}
	.st17{opacity:0.3;fill:url(#SVGID_00000145050836137272589810000012045295069766559147_);enable-background:new    ;}
	.st18{fill:url(#SVGID_00000054256275993224200780000004462994159514868110_);}
	.st19{fill:url(#SVGID_00000175280971319541668200000004942629176837173377_);}
	.st20{fill:url(#SVGID_00000072994909824173995240000014801864197810069424_);}
	.st21{fill:url(#SVGID_00000164484648400351684760000015462620492884181934_);}
	.st22{fill:url(#SVGID_00000147178073794012003720000011860515753694828422_);}
	.st23{opacity:0.5;fill:#758EF5;enable-background:new    ;}
	.st24{opacity:0.2;fill:#758EF5;enable-background:new    ;}
	.st25{opacity:0.4;fill:#0F054C;enable-background:new    ;}
	.st26{fill:url(#SVGID_00000156561627271674423930000002675766824588590522_);}
	.st27{opacity:0.48;fill:url(#SVGID_00000106861796979835609810000001962090304921409424_);enable-background:new    ;}
	.st28{opacity:0.48;fill:url(#SVGID_00000079478529742608007290000011575522971887485092_);enable-background:new    ;}
	.st29{fill:url(#SVGID_00000116933756825291154290000010000525664795211923_);}
	.st30{opacity:0.3;fill:#91A2FA;enable-background:new    ;}
	.st31{opacity:5.000000e-02;}
	.st32{opacity:5.000000e-02;fill:url(#SVGID_00000061466469527330624610000004664446308169086855_);enable-background:new    ;}
	.st33{opacity:5.000000e-02;fill:#91A2FA;enable-background:new    ;}
	.st34{fill:url(#SVGID_00000047750394181218290970000017115725832590863793_);}
	.st35{fill:url(#SVGID_00000046320467050096803140000016958777062845742777_);}
	.st36{fill:url(#SVGID_00000029042813705637657900000001393499081822365104_);}
	.st37{fill:url(#SVGID_00000103252459885749440820000016178204492272773301_);}
	.st38{fill:#91A2FA;}
	.st39{fill:#97A6FC;}
	.st40{opacity:0.8;fill:#91A2FA;enable-background:new    ;}
	.st41{opacity:0.6;fill:#91A2FA;enable-background:new    ;}
	.st42{opacity:0.4;fill:#91A2FA;enable-background:new    ;}
	.st43{opacity:0.2;fill:#91A2FA;enable-background:new    ;}
	.st44{opacity:0.1;fill:#91A2FA;enable-background:new    ;}
	.st45{opacity:0.6;fill:#97A6FC;enable-background:new    ;}
	.st46{clip-path:url(#SVGID_00000040548799243338401660000006505868452437908131_);}
	.st47{fill:url(#SVGID_00000151513983359842111460000005859732260354956455_);stroke:#AAC4F9;}
	.st48{fill:url(#SVGID_00000181077053029299854820000010149091660508785314_);}
	.st49{opacity:0.2;fill:#97A6FC;enable-background:new    ;}
	.st50{opacity:0.8;fill:#97A6FC;enable-background:new    ;}
</style>
<g class="st0">
	
		<linearGradient id="SVGID_1_" gradientUnits="userSpaceOnUse" x1="313.5211" y1="793.5948" x2="385.5385" y2="841.4454" gradientTransform="matrix(1 0 0 1 194 -376)">
		<stop  offset="0" style="stop-color:#BCBEFF"/>
		<stop  offset="0.23" style="stop-color:#AAADF8"/>
		<stop  offset="0.68" style="stop-color:#7C83E5"/>
		<stop  offset="1" style="stop-color:#5761D7"/>
	</linearGradient>
	<path class="st1" d="M592.8,444.3v-7.4l-2.3-1.1c-0.7,3.5-5.4,5.8-9.4,6.3l-27,13.7l-11.8,3.7l-37.7-16.9l0.9-0.4
		c-3.2-1.3-5-4.3-6.7-7l-2.5,1.3l-1.5,0.4v7.6c0.1,0.9,0.5,1.7,1,2.4c0.6,0.7,1.4,1.3,2.3,1.6l37.8,18.9c2.5,1.1,5.2,1.7,8,1.7
		s5.5-0.6,8-1.7l37.7-18.9c0.9-0.4,1.7-0.9,2.2-1.6s0.9-1.5,1.1-2.3C592.9,444.5,592.9,444.4,592.8,444.3L592.8,444.3z"/>
	<path class="st2" d="M581.1,442.1l-27,13.7l-10.3,3.2v10c2.8,0,5.5-0.5,8-1.7l37.7-18.9c0.9-0.4,1.7-0.9,2.2-1.6s0.9-1.5,1.1-2.3
		c0-0.1,0-0.1,0-0.2v-7.4l-2.2-1h-0.2C589.7,439.3,585,441.5,581.1,442.1z"/>
	
		<linearGradient id="SVGID_00000026123945216172816450000000771887216089564833_" gradientUnits="userSpaceOnUse" x1="300.8" y1="812.9" x2="398.9083" y2="812.9" gradientTransform="matrix(1 0 0 1 194 -376)">
		<stop  offset="0" style="stop-color:#E9E9FD"/>
		<stop  offset="0.36" style="stop-color:#D3D2F9"/>
		<stop  offset="0.71" style="stop-color:#C5C4F7"/>
		<stop  offset="1" style="stop-color:#C0BFF6"/>
	</linearGradient>
	<path style="opacity:0.3;fill:url(#SVGID_00000026123945216172816450000000771887216089564833_);enable-background:new    ;" d="
		M535.8,459.8l-37.7-18.9c-4.4-2.2-4.4-5.8,0-8l37.7-18.9c2.5-1.1,5.2-1.7,8-1.7s5.5,0.6,8,1.7l37.7,18.9c4.4,2.2,4.4,5.8,0,8
		l-37.7,18.9c-2.5,1.1-5.2,1.7-8,1.7C541.1,461.5,538.3,460.9,535.8,459.8z"/>
	<g class="st0">
		<path class="st2" d="M535.8,459.8l-37.7-18.9c-4.4-2.2-4.4-5.8,0-8l37.7-18.9c2.5-1.1,5.2-1.7,8-1.7s5.5,0.6,8,1.7l37.7,18.9
			c4.4,2.2,4.4,5.8,0,8l-37.7,18.9c-2.5,1.1-5.2,1.7-8,1.7C541.1,461.5,538.3,460.9,535.8,459.8z"/>
	</g>
</g>
<path class="st4" d="M543.8,435.9c-2.5,0-4.9-0.5-7.1-1.5L499,415.5c-0.9-0.3-1.7-0.8-2.2-1.4c-0.5-0.7-0.8-1.5-0.8-2.3
	s0.3-1.6,0.8-2.3c0.5-0.7,1.3-1.2,2.2-1.4l37.7-18.9c2.2-1,4.6-1.5,7.1-1.5s4.9,0.5,7.1,1.5l37.8,18.9c0.9,0.3,1.7,0.8,2.2,1.4
	c0.5,0.7,0.8,1.5,0.8,2.3s-0.3,1.6-0.8,2.3c-0.5,0.7-1.3,1.2-2.2,1.4L551,434.4C548.7,435.5,546.3,436,543.8,435.9z M543.8,388.2
	c-2.4,0-4.7,0.4-6.8,1.4l-37.7,18.9c-0.8,0.2-1.5,0.7-1.9,1.2c-0.5,0.6-0.7,1.3-0.7,2s0.3,1.4,0.7,2c0.5,0.6,1.2,1,1.9,1.2
	l37.7,18.9c2.1,0.9,4.4,1.4,6.8,1.4c2.4,0,4.7-0.5,6.8-1.4l37.7-19c0.8-0.2,1.5-0.7,1.9-1.2c0.5-0.6,0.7-1.3,0.7-2s-0.3-1.4-0.7-2
	c-0.5-0.6-1.2-1-1.9-1.2l-37.7-18.9C548.5,388.6,546.1,388.2,543.8,388.2z"/>
<path class="st5" d="M592.8,404.5v-11.2l-2.3-1.1c-0.7,3.5-5.4,5.8-9.4,6.3l-27,13.7l-11.8,3.7L504.6,399l0.9-0.4
	c-3.2-1.3-5-4.3-6.7-7l-2.5,1.3l-1.5,0.4v11.4c0.1,0.9,0.5,1.7,1,2.4c0.6,0.7,1.4,1.3,2.3,1.6l37.8,18.9c2.5,1.1,5.2,1.7,8,1.7
	s5.5-0.6,8-1.7l37.7-18.9c0.9-0.4,1.7-0.9,2.2-1.6c0.6-0.7,0.9-1.5,1.1-2.3C592.9,404.7,592.9,404.6,592.8,404.5L592.8,404.5z"/>
<linearGradient id="SVGID_00000034811607633876416790000000010776930208293549_" gradientUnits="userSpaceOnUse" x1="17147.1523" y1="28845.8203" x2="18555.2539" y2="31199.6094" gradientTransform="matrix(1 0 0 1 194 -376)">
	<stop  offset="0" style="stop-color:#BCBEFF"/>
	<stop  offset="0.23" style="stop-color:#AAADF8"/>
	<stop  offset="0.68" style="stop-color:#7C83E5"/>
	<stop  offset="1" style="stop-color:#5761D7"/>
</linearGradient>
<path style="fill:url(#SVGID_00000034811607633876416790000000010776930208293549_);" d="M592.8,394.5v-7.4l-2.3-1.1
	c-0.7,3.5-5.4,5.8-9.4,6.3l-27,13.7l-11.8,3.7l-37.7-16.9l0.9-0.4c-3.2-1.3-5-4.3-6.7-7l-2.5,1.3l-1.5,0.4v7.6
	c0.1,0.9,0.5,1.7,1,2.4c0.6,0.7,1.4,1.3,2.3,1.6l37.8,18.9c2.5,1.1,5.2,1.7,8,1.7s5.5-0.6,8-1.7l37.7-18.9c0.9-0.4,1.7-0.9,2.2-1.6
	c0.6-0.7,0.9-1.5,1.1-2.3C592.9,394.7,592.9,394.6,592.8,394.5L592.8,394.5z"/>
<path class="st2" d="M581.1,392.3l-27,13.7l-10.3,3.2v10c2.8,0,5.5-0.5,8-1.7l37.7-18.9c0.9-0.4,1.7-0.9,2.2-1.6
	c0.6-0.7,0.9-1.5,1.1-2.3c0-0.1,0-0.1,0-0.2v-7.4l-2.2-1h-0.2C589.7,389.5,585,391.8,581.1,392.3z"/>
<linearGradient id="SVGID_00000124157869435926724530000017509530215258216891_" gradientUnits="userSpaceOnUse" x1="50674.5586" y1="763.0554" x2="55720.2578" y2="763.0554" gradientTransform="matrix(1 0 0 1 194 -376)">
	<stop  offset="0" style="stop-color:#E9E9FD"/>
	<stop  offset="0.36" style="stop-color:#D3D2F9"/>
	<stop  offset="0.71" style="stop-color:#C5C4F7"/>
	<stop  offset="1" style="stop-color:#C0BFF6"/>
</linearGradient>
<path style="fill:url(#SVGID_00000124157869435926724530000017509530215258216891_);" d="M535.8,410l-37.7-18.9
	c-4.4-2.2-4.4-5.8,0-8l37.7-18.9c2.5-1.1,5.2-1.7,8-1.7s5.5,0.6,8,1.7l37.7,18.9c4.4,2.2,4.4,5.8,0,8L551.8,410
	c-2.5,1.1-5.2,1.6-8,1.6C541.1,411.7,538.3,411.1,535.8,410z"/>
<path class="st8" d="M589.5,391.1L551.8,410c-2.5,1.1-5.2,1.7-8,1.7s-5.5-0.6-8-1.7l-37.7-18.9c-0.8-0.3-1.5-0.8-2.1-1.5
	c-0.6-0.6-1-1.3-1.2-2.1c-0.3,1.7,0.8,3.3,3.3,4.5l37.8,19c2.5,1.1,5.2,1.7,8,1.7s5.5-0.6,8-1.7l37.7-18.9c1-0.4,1.9-1,2.4-1.8
	c0.6-0.8,0.9-1.7,0.8-2.7c-0.2,0.8-0.6,1.5-1.2,2.1C591.1,390.3,590.4,390.8,589.5,391.1z"/>
<linearGradient id="SVGID_00000093874841460196451710000003438755555299554732_" gradientUnits="userSpaceOnUse" x1="164.3" y1="732.8" x2="331.1" y2="732.8" gradientTransform="matrix(1 0 0 1 194 -376)">
	<stop  offset="0" style="stop-color:#5778FF"/>
	<stop  offset="0.1042" style="stop-color:#567FFF"/>
	<stop  offset="0.2607" style="stop-color:#5394FF"/>
	<stop  offset="0.4503" style="stop-color:#4DB6FF"/>
	<stop  offset="0.6638" style="stop-color:#46E4FF"/>
	<stop  offset="0.7742" style="stop-color:#42FFFF"/>
</linearGradient>
<path style="fill:url(#SVGID_00000093874841460196451710000003438755555299554732_);" d="M524.8,386.2L439,341.6l-27.3,13.7h-0.3
	l-53.1-27.2l0.3-0.7l53.1,27.1l27.3-13.7l0.6,0.3l85.5,44.5L524.8,386.2z"/>
<g class="st0">
	
		<linearGradient id="SVGID_00000101087491954475357270000018101621304765896327_" gradientUnits="userSpaceOnUse" x1="15220.9795" y1="26502.1523" x2="16629.082" y2="28855.9512" gradientTransform="matrix(1 0 0 1 194 -376)">
		<stop  offset="0" style="stop-color:#BCBEFF"/>
		<stop  offset="0.23" style="stop-color:#AAADF8"/>
		<stop  offset="0.68" style="stop-color:#7C83E5"/>
		<stop  offset="1" style="stop-color:#5761D7"/>
	</linearGradient>
	<path style="opacity:0.3;fill:url(#SVGID_00000101087491954475357270000018101621304765896327_);enable-background:new    ;" d="
		M98.1,443.5v-7.4l-2.4-1.1c-0.7,3.5-5.4,5.8-9.4,6.3l-27,13.7l-11.8,3.7L9.8,441.8l0.9-0.4c-3.2-1.3-5-4.3-6.7-7l-2.5,1.3L0,436.1
		v7.6c0.1,0.9,0.5,1.7,1,2.4c0.6,0.7,1.4,1.3,2.3,1.6L41,466.6c2.5,1.1,5.2,1.7,8,1.7s5.5-0.6,8-1.7l37.7-18.9
		c0.9-0.4,1.7-0.9,2.3-1.6c0.6-0.7,0.9-1.5,1.1-2.4C98.1,443.7,98.1,443.6,98.1,443.5z"/>
	<path class="st2" d="M86.4,441.3L59.3,455L49,458.2v10c2.8,0,5.5-0.5,8-1.7l37.7-18.9c0.9-0.4,1.7-0.9,2.3-1.6
		c0.6-0.7,0.9-1.5,1.1-2.4c0,0,0-0.1,0-0.2V436l-2.2-1h-0.2C95,438.5,90.3,440.8,86.4,441.3z"/>
	
		<linearGradient id="SVGID_00000083801633312288695050000011960128946256371108_" gradientUnits="userSpaceOnUse" x1="41559.1562" y1="812.05" x2="46608.2578" y2="812.05" gradientTransform="matrix(1 0 0 1 194 -376)">
		<stop  offset="0" style="stop-color:#E9E9FD"/>
		<stop  offset="0.36" style="stop-color:#D3D2F9"/>
		<stop  offset="0.71" style="stop-color:#C5C4F7"/>
		<stop  offset="1" style="stop-color:#C0BFF6"/>
	</linearGradient>
	<path style="opacity:0.3;fill:url(#SVGID_00000083801633312288695050000011960128946256371108_);enable-background:new    ;" d="
		M41,459.1l-37.7-19c-4.4-2.2-4.4-5.8,0-8l37.7-19c2.5-1.1,5.2-1.7,8-1.7s5.5,0.6,8,1.7L94.7,432c4.4,2.2,4.4,5.8,0,8L57,459
		c-2.5,1.1-5.2,1.7-8,1.7C46.3,460.7,43.5,460.1,41,459.1z"/>
	<g class="st0">
		<path class="st2" d="M41,459.1l-37.7-19c-4.4-2.2-4.4-5.8,0-8l37.7-19c2.5-1.1,5.2-1.7,8-1.7s5.5,0.6,8,1.7L94.7,432
			c4.4,2.2,4.4,5.8,0,8L57,459c-2.5,1.1-5.2,1.7-8,1.7C46.3,460.7,43.5,460.1,41,459.1z"/>
	</g>
</g>
<path class="st4" d="M49,431.5c-2.5,0-4.9-0.5-7.1-1.5L4.2,411.1c-0.9-0.3-1.7-0.8-2.2-1.4c-0.5-0.7-0.8-1.5-0.8-2.3
	s0.3-1.6,0.8-2.3c0.5-0.7,1.3-1.2,2.2-1.4l37.7-18.9c2.2-1,4.6-1.5,7.1-1.5c2.5,0,4.9,0.5,7.1,1.5l37.7,18.9
	c0.9,0.3,1.7,0.8,2.2,1.4c0.5,0.7,0.8,1.5,0.8,2.3s-0.3,1.6-0.8,2.3c-0.5,0.7-1.3,1.2-2.2,1.4L56.2,430
	C54,431.1,51.5,431.6,49,431.5z M42.2,429.5c2.1,0.9,4.4,1.4,6.8,1.4s4.7-0.5,6.8-1.4l37.7-18.9c0.8-0.2,1.6-0.6,2.1-1.2
	s0.8-1.3,0.8-2.1c0-0.8-0.3-1.5-0.8-2.1s-1.3-1-2.1-1.2l-37.7-18.9c-2.1-0.9-4.4-1.4-6.8-1.4c-2.4,0-4.7,0.5-6.8,1.4L4.5,404
	c-0.8,0.2-1.6,0.6-2.1,1.2s-0.8,1.3-0.8,2.1c0,0.8,0.3,1.5,0.8,2.1s1.3,1,2.1,1.2L42.2,429.5z"/>
<path class="st5" d="M98.1,400.1v-11.2l-2.4-1.1c-0.7,3.5-5.4,5.8-9.4,6.3l-27,13.7l-11.8,3.7L9.8,394.6l0.9-0.4
	c-3.2-1.3-5-4.3-6.7-7l-2.5,1.3L0,388.9v11.4c0.1,0.9,0.4,1.7,1,2.4c0.6,0.7,1.4,1.3,2.3,1.6L41,423.2c2.5,1.1,5.2,1.7,8,1.7
	s5.5-0.6,8-1.7l37.7-18.9c0.9-0.4,1.7-0.9,2.3-1.6c0.6-0.7,0.9-1.5,1.1-2.4C98.1,400.3,98.1,400.2,98.1,400.1L98.1,400.1z"/>
<linearGradient id="SVGID_00000132072579804336567660000006151882116513515413_" gradientUnits="userSpaceOnUse" x1="14736.4072" y1="25640.6992" x2="16144.0088" y2="27993.8477" gradientTransform="matrix(1 0 0 1 194 -376)">
	<stop  offset="0" style="stop-color:#BCBEFF"/>
	<stop  offset="0.23" style="stop-color:#AAADF8"/>
	<stop  offset="0.68" style="stop-color:#7C83E5"/>
	<stop  offset="1" style="stop-color:#5761D7"/>
</linearGradient>
<path style="fill:url(#SVGID_00000132072579804336567660000006151882116513515413_);" d="M98.1,390.1v-7.4l-2.4-1.1
	c-0.7,3.5-5.4,5.8-9.4,6.3l-27,13.7l-11.8,3.7L9.8,388.4l0.9-0.4c-3.2-1.3-5-4.3-6.7-7l-2.5,1.3L0,382.7v7.6c0.1,0.9,0.5,1.7,1,2.4
	c0.6,0.7,1.4,1.3,2.3,1.6L41,413.2c2.5,1.1,5.2,1.7,8,1.7s5.5-0.6,8-1.7l37.7-18.9c0.9-0.4,1.7-0.9,2.3-1.6c0.6-0.7,0.9-1.5,1.1-2.4
	C98.1,390.3,98.1,390.2,98.1,390.1z"/>
<linearGradient id="SVGID_00000056391509890262282130000013295604343392845725_" gradientUnits="userSpaceOnUse" x1="41559.1562" y1="758.7" x2="46608.2578" y2="758.7" gradientTransform="matrix(1 0 0 1 194 -376)">
	<stop  offset="0" style="stop-color:#E9E9FD"/>
	<stop  offset="0.36" style="stop-color:#D3D2F9"/>
	<stop  offset="0.71" style="stop-color:#C5C4F7"/>
	<stop  offset="1" style="stop-color:#C0BFF6"/>
</linearGradient>
<path style="fill:url(#SVGID_00000056391509890262282130000013295604343392845725_);" d="M41,405.7l-37.7-19c-4.4-2.2-4.4-5.8,0-8
	L41,359.8c2.5-1.1,5.2-1.7,8-1.7s5.5,0.6,8,1.7l37.7,18.9c4.4,2.2,4.4,5.8,0,8L57,405.6c-2.5,1.1-5.2,1.7-8,1.7
	C46.3,407.3,43.5,406.8,41,405.7z"/>
<path class="st14" d="M49,402.2c-2.2,0-4.5-0.4-6.4-1.3l-29.5-14.8c-0.8-0.2-1.5-0.7-2-1.3c-0.5-0.6-0.8-1.3-0.8-2.1
	s0.3-1.5,0.8-2.1s1.2-1.1,2-1.3l29.5-14.8c2-0.9,4.2-1.3,6.4-1.3s4.4,0.5,6.4,1.3l29.5,14.8c0.8,0.2,1.5,0.7,2,1.3
	c0.5,0.6,0.8,1.3,0.8,2.1s-0.3,1.5-0.8,2.1s-1.2,1.1-2,1.3l-29.5,14.8C53.5,401.8,51.3,402.3,49,402.2z M42.9,400.4
	c1.9,0.8,4,1.3,6.1,1.3s4.2-0.4,6.1-1.3l29.5-14.8c0.7-0.2,1.3-0.6,1.8-1.1s0.7-1.1,0.7-1.8s-0.2-1.3-0.7-1.8s-1.1-0.9-1.8-1.1
	L55.1,365c-1.9-0.8-4-1.3-6.1-1.3s-4.2,0.4-6.1,1.3l-29.5,14.8c-0.7,0.2-1.2,0.6-1.7,1.2c-0.4,0.5-0.7,1.1-0.8,1.7
	c0.1,0.6,0.3,1.2,0.8,1.7c0.4,0.5,1,0.9,1.7,1.2L42.9,400.4z"/>
<path class="st8" d="M94.8,386.7l-37.7,18.9c-2.5,1.1-5.2,1.7-8,1.7c-2.8,0-5.5-0.6-8-1.7L3.3,386.7c-0.8-0.3-1.5-0.8-2.1-1.5
	c-0.6-0.6-1-1.3-1.2-2.1c0,1,0.2,1.9,0.8,2.7c0.6,0.8,1.4,1.4,2.4,1.8l37.7,18.9c2.5,1.1,5.2,1.7,8,1.7c2.8,0,5.5-0.6,8-1.7
	l37.7-18.9c1-0.4,1.9-1,2.4-1.8c0.6-0.8,0.9-1.7,0.8-2.7c-0.2,0.8-0.6,1.5-1.2,2.1C96.3,385.9,95.6,386.4,94.8,386.7z"/>
<linearGradient id="SVGID_00000119803504356834830130000006682874393940899474_" gradientUnits="userSpaceOnUse" x1="26.0841" y1="746.4828" x2="-140.8841" y2="747.6178" gradientTransform="matrix(1 0 0 1 194 -376)">
	<stop  offset="0" style="stop-color:#5778FF"/>
	<stop  offset="0.1042" style="stop-color:#567FFF"/>
	<stop  offset="0.2607" style="stop-color:#5394FF"/>
	<stop  offset="0.4503" style="stop-color:#4DB6FF"/>
	<stop  offset="0.6638" style="stop-color:#46E4FF"/>
	<stop  offset="0.7742" style="stop-color:#42FFFF"/>
</linearGradient>
<path style="fill:url(#SVGID_00000119803504356834830130000006682874393940899474_);" d="M53.7,399.4l85.5-42.7l27.4,12.8h0.3
	l53-26.1l-0.3-0.7l-53,25.9l-27.4-12.8l-0.6,0.3l-85.3,42.6L53.7,399.4z"/>
<g class="st0">
	
		<linearGradient id="SVGID_00000101805871238991418020000001240867818074882215_" gradientUnits="userSpaceOnUse" x1="8964.543" y1="14905.1748" x2="10372.8438" y2="17257.1641" gradientTransform="matrix(1 0 0 1 194 -376)">
		<stop  offset="0" style="stop-color:#BCBEFF"/>
		<stop  offset="0.23" style="stop-color:#AAADF8"/>
		<stop  offset="0.68" style="stop-color:#7C83E5"/>
		<stop  offset="1" style="stop-color:#5761D7"/>
	</linearGradient>
	<path style="opacity:0.3;fill:url(#SVGID_00000101805871238991418020000001240867818074882215_);enable-background:new    ;" d="
		M591.8,143.2v-7.4l-2.4-1.1c-0.7,3.5-5.4,5.8-9.4,6.3l-27,13.7l-11.8,3.7l-37.7-16.9l0.9-0.4c-3.2-1.3-5-4.3-6.7-7l-2.5,1.3
		l-1.5,0.4v7.6c0.1,0.9,0.4,1.7,1,2.4s1.4,1.3,2.3,1.6l37.7,18.9c2.5,1.1,5.2,1.7,8,1.7s5.5-0.6,8-1.7l37.7-18.9
		c0.9-0.4,1.7-0.9,2.3-1.6c0.6-0.7,0.9-1.5,1.1-2.4L591.8,143.2L591.8,143.2z"/>
	<path class="st2" d="M580.1,140.9l-27,13.7l-10.3,3.2v10c2.8,0.1,5.5-0.5,8-1.7l37.7-18.9c0.9-0.4,1.7-0.9,2.3-1.6
		c0.6-0.7,0.9-1.5,1.1-2.4V143v-7.4l-2.2-1h-0.2C588.7,138.1,584,140.4,580.1,140.9z"/>
	
		<linearGradient id="SVGID_00000018939129501922796270000013945793102199147446_" gradientUnits="userSpaceOnUse" x1="25403.1543" y1="511.7" x2="30443.2559" y2="511.7" gradientTransform="matrix(1 0 0 1 194 -376)">
		<stop  offset="0" style="stop-color:#E9E9FD"/>
		<stop  offset="0.36" style="stop-color:#D3D2F9"/>
		<stop  offset="0.71" style="stop-color:#C5C4F7"/>
		<stop  offset="1" style="stop-color:#C0BFF6"/>
	</linearGradient>
	<path style="opacity:0.3;fill:url(#SVGID_00000018939129501922796270000013945793102199147446_);enable-background:new    ;" d="
		M534.8,158.7l-37.6-18.9c-4.4-2.2-4.4-5.8,0-8l37.6-19c2.5-1.1,5.2-1.7,8-1.7s5.5,0.6,8,1.7l37.7,18.9c4.4,2.2,4.4,5.8,0,8
		l-37.7,18.9c-2.5,1.1-5.2,1.7-8,1.7C540,160.3,537.3,159.8,534.8,158.7z"/>
	<g class="st0">
		<path class="st2" d="M534.8,158.7l-37.6-18.9c-4.4-2.2-4.4-5.8,0-8l37.6-19c2.5-1.1,5.2-1.7,8-1.7s5.5,0.6,8,1.7l37.7,18.9
			c4.4,2.2,4.4,5.8,0,8l-37.7,18.9c-2.5,1.1-5.2,1.7-8,1.7C540,160.3,537.3,159.8,534.8,158.7z"/>
	</g>
</g>
<path class="st4" d="M542.8,136c-2.5,0-4.9-0.5-7.1-1.5L498,115.6c-0.9-0.3-1.7-0.8-2.2-1.4c-0.5-0.7-0.8-1.5-0.8-2.3
	s0.3-1.6,0.8-2.3s1.3-1.2,2.2-1.4l37.7-18.9c2.2-1,4.6-1.5,7.1-1.5s4.9,0.5,7.1,1.5l37.7,18.9c0.9,0.3,1.7,0.8,2.2,1.4
	c0.5,0.7,0.8,1.5,0.8,2.3s-0.3,1.6-0.8,2.3s-1.3,1.2-2.2,1.4l-37.7,18.9C547.7,135.5,545.3,136,542.8,136z M542.8,88.3
	c-2.4,0-4.7,0.4-6.8,1.4l-37.7,18.9c-0.8,0.2-1.5,0.7-1.9,1.2c-0.5,0.6-0.7,1.3-0.7,2s0.3,1.4,0.7,2c0.5,0.6,1.2,1,1.9,1.2
	l37.7,18.9c2.1,0.9,4.4,1.4,6.8,1.4c2.4,0,4.7-0.5,6.8-1.4l37.7-18.9c0.8-0.2,1.5-0.7,1.9-1.2c0.5-0.6,0.7-1.3,0.7-2s-0.3-1.4-0.7-2
	c-0.5-0.6-1.2-1-1.9-1.2l-37.7-18.9C547.5,88.7,545.2,88.3,542.8,88.3z"/>
<path class="st5" d="M591.8,104.6V93.4l-2.4-1.1c-0.7,3.5-5.4,5.8-9.4,6.3l-27,13.7l-11.7,3.7l-37.7-16.9l0.9-0.4
	c-3.2-1.3-5-4.3-6.7-7l-2.5,1.3l-1.5,0.4v11.4c0.1,0.9,0.5,1.7,1.1,2.4c0.6,0.7,1.4,1.2,2.3,1.6l37.6,18.9c2.5,1.1,5.2,1.7,8,1.7
	s5.5-0.6,8-1.7l37.7-18.9c0.9-0.4,1.7-0.9,2.3-1.6s0.9-1.5,1.1-2.4L591.8,104.6L591.8,104.6z"/>
<linearGradient id="SVGID_00000165211882391960483120000009496179254057079982_" gradientUnits="userSpaceOnUse" x1="8551.8301" y1="14138.9863" x2="9964.4316" y2="16493.2969" gradientTransform="matrix(1 0 0 1 194 -376)">
	<stop  offset="0" style="stop-color:#BCBEFF"/>
	<stop  offset="0.23" style="stop-color:#AAADF8"/>
	<stop  offset="0.68" style="stop-color:#7C83E5"/>
	<stop  offset="1" style="stop-color:#5761D7"/>
</linearGradient>
<path style="fill:url(#SVGID_00000165211882391960483120000009496179254057079982_);" d="M591.8,94.6v-7.4l-2.4-1.1
	c-0.7,3.5-5.4,5.8-9.4,6.3l-27,13.7l-11.8,3.7l-37.7-17l0.9-0.4c-3.2-1.3-5-4.3-6.7-7l-2.5,1.3l-1.5,0.4v7.6c0.1,0.9,0.5,1.7,1,2.4
	s1.4,1.3,2.3,1.6l37.7,19c2.5,1.1,5.2,1.7,8,1.7s5.5-0.6,8-1.7l37.7-18.9c0.9-0.4,1.7-0.9,2.3-1.6s0.9-1.5,1.1-2.4L591.8,94.6
	L591.8,94.6z"/>
<path class="st2" d="M580.1,92.4l-27,13.7l-10.3,3.2v10c2.8,0.1,5.5-0.5,8-1.7l37.7-18.9c0.9-0.4,1.7-0.9,2.3-1.6s0.9-1.5,1.1-2.4
	v-0.2v-7.4l-2.2-1h-0.2C588.7,89.6,584,91.9,580.1,92.4z"/>
<linearGradient id="SVGID_00000039123567060431609720000000902353606990686110_" gradientUnits="userSpaceOnUse" x1="317.1303" y1="441.5798" x2="381.2712" y2="484.1803" gradientTransform="matrix(1 0 0 1 194 -376)">
	<stop  offset="0.24" style="stop-color:#5761D7"/>
	<stop  offset="0.39" style="stop-color:#7A82E5"/>
	<stop  offset="0.55" style="stop-color:#979CF0"/>
	<stop  offset="0.7" style="stop-color:#ACAFF8"/>
	<stop  offset="0.85" style="stop-color:#B8BAFD"/>
	<stop  offset="1" style="stop-color:#BCBEFF"/>
</linearGradient>
<path style="fill:url(#SVGID_00000039123567060431609720000000902353606990686110_);" d="M504.5,92.5l35.7-17.9
	c0.8-0.3,1.7-0.5,2.6-0.5s1.8,0.2,2.6,0.5l35.1,17.6l-0.4,0.2c4-0.5,8.7-2.8,9.4-6.3L550.1,67l-11.4-2.6l-9.3,4.8l-31.5,16.3
	C499.5,88.2,501.3,91.2,504.5,92.5z"/>
<path class="st2" d="M542.8,65.3l-4.2-1l-9.3,4.8l-31.5,16.3c1.7,2.7,3.5,5.7,6.7,7l35.7-17.9c0.8-0.4,1.7-0.6,2.6-0.5V65.3z"/>
<linearGradient id="SVGID_00000160886656209731996940000016731674611442777222_" gradientUnits="userSpaceOnUse" x1="25427.5547" y1="463.1054" x2="30472.5547" y2="463.1054" gradientTransform="matrix(1 0 0 1 194 -376)">
	<stop  offset="0" style="stop-color:#E9E9FD"/>
	<stop  offset="0.36" style="stop-color:#D3D2F9"/>
	<stop  offset="0.71" style="stop-color:#C5C4F7"/>
	<stop  offset="1" style="stop-color:#C0BFF6"/>
</linearGradient>
<path style="fill:url(#SVGID_00000160886656209731996940000016731674611442777222_);" d="M534.8,110.1l-37.6-19
	c-4.4-2.2-4.4-5.8,0-8l37.7-18.9c2.5-1.1,5.2-1.7,8-1.7s5.5,0.6,8,1.7l37.7,18.9c4.4,2.2,4.4,5.8,0,8L550.9,110
	c-2.5,1.1-5.2,1.7-8.1,1.7C540,111.8,537.3,111.2,534.8,110.1z M545.4,67c-0.8-0.3-1.7-0.5-2.6-0.5c-0.9,0-1.8,0.2-2.6,0.5l-37.7,19
	c-0.3,0.1-0.6,0.3-0.8,0.5s-0.3,0.5-0.3,0.8s0.1,0.6,0.3,0.8c0.2,0.2,0.5,0.4,0.8,0.5l37.7,18.9c0.8,0.3,1.7,0.5,2.6,0.5
	c0.9,0,1.8-0.2,2.6-0.5l37.7-18.9c0.3-0.1,0.6-0.3,0.8-0.5s0.3-0.5,0.3-0.8s-0.1-0.6-0.3-0.8c-0.2-0.2-0.5-0.4-0.8-0.5L545.4,67z"/>
<path class="st8" d="M583.1,85.9L545.4,67c-0.8-0.3-1.7-0.5-2.6-0.5c-0.9,0-1.8,0.2-2.6,0.5l-37.7,18.9c-1,0.5-1.3,1.1-1,1.8
	c0.2-0.4,0.5-0.6,1-0.8L540.2,68c0.8-0.3,1.7-0.5,2.6-0.5c0.9,0,1.8,0.2,2.6,0.5l37.7,18.9c0.4,0.2,0.7,0.5,0.9,0.8
	C584.3,87,584,86.4,583.1,85.9z"/>
<path class="st8" d="M588.5,91.2l-37.7,18.9c-2.5,1.1-5.2,1.7-8,1.7s-5.5-0.6-8-1.7l-37.6-18.9c-0.8-0.3-1.5-0.8-2.1-1.4
	s-1-1.3-1.2-2.1c0,0.9,0.2,1.9,0.8,2.7c0.6,0.8,1.4,1.4,2.4,1.8l37.6,19c2.5,1.1,5.2,1.7,8,1.7s5.5-0.6,8-1.7l37.7-18.9
	c1-0.4,1.9-1,2.4-1.8c0.6-0.8,0.9-1.7,0.8-2.7c-0.2,0.8-0.6,1.5-1.2,2.1C590,90.4,589.3,90.8,588.5,91.2z"/>
<linearGradient id="SVGID_00000111160086956843614240000014917665049107070135_" gradientUnits="userSpaceOnUse" x1="24722.5547" y1="463.2" x2="29460.4551" y2="463.2" gradientTransform="matrix(1 0 0 1 194 -376)">
	<stop  offset="0" style="stop-color:#E9E9FD"/>
	<stop  offset="0.36" style="stop-color:#D3D2F9"/>
	<stop  offset="0.71" style="stop-color:#C5C4F7"/>
	<stop  offset="1" style="stop-color:#C0BFF6"/>
</linearGradient>
<path style="fill:url(#SVGID_00000111160086956843614240000014917665049107070135_);" d="M535.8,109.6l-37.7-18.9
	c-3.8-1.9-3.8-5,0-7l37.7-18.9c2.1-1,4.5-1.5,6.9-1.5s4.8,0.5,6.9,1.5l37.7,18.9c3.8,1.9,3.8,5,0,7l-37.7,18.9
	c-2.1,1-4.5,1.5-6.9,1.5C540.4,111.1,538,110.6,535.8,109.6z M546.4,66.5c-1.1-0.5-2.4-0.8-3.6-0.8s-2.5,0.3-3.6,0.8l-37.7,18.9
	c-0.4,0.1-0.8,0.4-1.1,0.7c-0.3,0.3-0.4,0.7-0.4,1.1s0.1,0.8,0.4,1.1c0.3,0.3,0.7,0.6,1.1,0.7l37.7,18.9c1.1,0.5,2.4,0.7,3.6,0.7
	s2.5-0.3,3.6-0.7L584.1,89c0.4-0.1,0.8-0.4,1.1-0.7c0.3-0.3,0.4-0.7,0.4-1.1s-0.1-0.8-0.4-1.1c-0.3-0.3-0.7-0.6-1.1-0.7L546.4,66.5z
	"/>
<path class="st5" d="M545.4,67c-0.8-0.3-1.7-0.5-2.6-0.5c-0.9,0-1.8,0.2-2.6,0.5l-37.7,18.9c-0.3,0.1-0.6,0.3-0.8,0.5
	s-0.3,0.5-0.3,0.8s0.1,0.6,0.3,0.8c0.2,0.2,0.5,0.4,0.8,0.5l37.7,18.9c0.8,0.3,1.7,0.5,2.6,0.5c0.9,0,1.8-0.2,2.6-0.5l37.7-18.9
	c0.3-0.1,0.6-0.3,0.8-0.5s0.3-0.5,0.3-0.8s-0.1-0.6-0.3-0.8c-0.2-0.2-0.5-0.4-0.8-0.5L545.4,67z"/>
<linearGradient id="SVGID_00000008859621462592510240000010612723596422971281_" gradientUnits="userSpaceOnUse" x1="218.4646" y1="615.8838" x2="285.5354" y2="482.1161" gradientTransform="matrix(1 0 0 1 194 -376)">
	<stop  offset="0" style="stop-color:#5778FF"/>
	<stop  offset="0.1042" style="stop-color:#567FFF"/>
	<stop  offset="0.2607" style="stop-color:#5394FF"/>
	<stop  offset="0.4503" style="stop-color:#4DB6FF"/>
	<stop  offset="0.6638" style="stop-color:#46E4FF"/>
	<stop  offset="0.7742" style="stop-color:#42FFFF"/>
</linearGradient>
<path style="fill:url(#SVGID_00000008859621462592510240000010612723596422971281_);" d="M516.9,125.2l-87.4,42.2v27.4l-0.2,0.2
	l-53.7,26.4l-0.5-0.6l53.6-26.4V167l0.6-0.3l87.1-42.1L516.9,125.2z"/>
<path class="st23" d="M462.4,245l14.8,7.4v29.7l-14.8-7.4V245z"/>
<path class="st24" d="M447.6,252.4l14.8,7.4v14.8l-14.8-7.4V252.4z"/>
<path class="st23" d="M432.8,200.4l14.8,7.4v59.4l-14.8-7.4V200.4z"/>
<path class="st24" d="M418,178.2l14.8,7.4v74.2l-14.8-7.4V178.2z"/>
<path class="st23" d="M403.2,185.6L418,193v59.4l-14.8-7.4V185.6z"/>
<path class="st24" d="M388.4,133.6l14.8,7.4v104l-14.8-7.4V133.6z"/>
<path class="st23" d="M373.6,141.1l14.8,7.4v89.1l-14.8-7.4V141.1z"/>
<path class="st24" d="M358.8,148.5l14.8,7.4v74.2l-14.8-7.4V148.5z"/>
<path class="st23" d="M344,111.4l14.8,7.4v103.9l-14.8-7.4V111.4z"/>
<path class="st24" d="M329.2,74.3l14.8,7.4v133.6l-14.8-7.4V74.3z"/>
<path class="st23" d="M314.5,81.7l14.8,7.4v118.8l-14.8-7.4V81.7z"/>
<path class="st24" d="M299.7,44.6l14.8,7.4v148.4l-14.8-7.4V44.6z"/>
<path class="st23" d="M284.9,37.1l14.8,7.4V193l-14.8-7.4V37.1z"/>
<path class="st24" d="M270.1,0l14.8,7.4v178.1l-14.8-7.4V0z"/>
<path class="st25" d="M284.6,392.2c74.8,0,135.5-30.4,135.5-68s-60.7-68-135.5-68s-135.5,30.4-135.5,68S209.8,392.2,284.6,392.2z"/>
<linearGradient id="SVGID_00000094616199928984298130000000918990913580684213_" gradientUnits="userSpaceOnUse" x1="15972.1533" y1="30354.5898" x2="31029.7539" y2="58504.9922" gradientTransform="matrix(1 0 0 1 194 -376)">
	<stop  offset="0" style="stop-color:#35068C"/>
	<stop  offset="2.000000e-02" style="stop-color:#40DDDA"/>
	<stop  offset="9.000000e-02" style="stop-color:#3AAEC0"/>
	<stop  offset="0.17" style="stop-color:#3484A9"/>
	<stop  offset="0.26" style="stop-color:#2F6195"/>
	<stop  offset="0.35" style="stop-color:#2B4486"/>
	<stop  offset="0.44" style="stop-color:#282E79"/>
	<stop  offset="0.54" style="stop-color:#261E71"/>
	<stop  offset="0.66" style="stop-color:#24156C"/>
	<stop  offset="0.82" style="stop-color:#24126A"/>
</linearGradient>
<path style="fill:url(#SVGID_00000094616199928984298130000000918990913580684213_);" d="M284.6,365.2c85.2,0,154.2-34.6,154.2-77.4
	s-69-77.4-154.2-77.4S130.4,245,130.4,287.8S199.4,365.2,284.6,365.2z"/>
<linearGradient id="SVGID_00000166637518705762935510000006121404600888956552_" gradientUnits="userSpaceOnUse" x1="-86.8638" y1="655.45" x2="218.4782" y2="655.45" gradientTransform="matrix(1 0 0 1 194 -376)">
	<stop  offset="0" style="stop-color:#3671E9"/>
	<stop  offset="0.15" style="stop-color:#91A2FA"/>
	<stop  offset="0.33" style="stop-color:#8B97F1"/>
	<stop  offset="0.52" style="stop-color:#7366C8"/>
	<stop  offset="0.72" style="stop-color:#654CB3"/>
	<stop  offset="0.93" style="stop-color:#4127A7"/>
	<stop  offset="1" style="stop-color:#260672"/>
</linearGradient>
<path style="opacity:0.48;fill:url(#SVGID_00000166637518705762935510000006121404600888956552_);enable-background:new    ;" d="
	M438.8,262.3H435c-6.2-13.8-20-26.9-41.4-37.6c-60.2-30.2-157.9-30.2-218,0c-20.2,10.1-33.5,22.4-40.3,35.3h-4.8v17.2
	c-1.2,20.6,13.8,41.3,45.1,57c60.2,30.2,157.9,30.2,218.1,0c30.1-15.1,45.2-34.9,45.2-54.7L438.8,262.3z"/>
<linearGradient id="SVGID_00000070828163123770602860000005665194720752398481_" gradientUnits="userSpaceOnUse" x1="21562.1543" y1="655.75" x2="83070.7578" y2="655.75" gradientTransform="matrix(1 0 0 1 194 -376)">
	<stop  offset="0" style="stop-color:#42E8E0"/>
	<stop  offset="0.15" style="stop-color:#43E3E0"/>
	<stop  offset="0.33" style="stop-color:#45D5DF"/>
	<stop  offset="0.52" style="stop-color:#49BDDD"/>
	<stop  offset="0.72" style="stop-color:#4E9CDB"/>
	<stop  offset="0.93" style="stop-color:#5472D8"/>
	<stop  offset="1" style="stop-color:#5761D7"/>
</linearGradient>
<path style="opacity:0.48;fill:url(#SVGID_00000070828163123770602860000005665194720752398481_);enable-background:new    ;" d="
	M435,255.7c-0.2-0.5-0.4-1-0.7-1.4V243h-8.1v-0.8c-2.1-2.5-4.4-4.8-6.9-7v7.8h-4.6v-11.7c-2.1-1.7-4.4-3.4-6.9-5V243h-4.5v-19.7
	c-2.2-1.3-4.6-2.7-6.9-3.9v23.5h-4.6v-25.8c-2.3-1.1-4.6-2.2-6.9-3.2v29h-4.6V212c-2.3-0.9-4.6-1.8-7-2.6v33.5h-4.6v-27.1h-7v27.1
	h-4.4v-19.6h-7V243h-4.6v-12.2h-7V243h-4.5v-4.8h-7v4.8H242v-4.8h-7v4.8h-4.5v-12.2h-7V243h-4.6v-19.7h-7V243h-4.6v-27.2h-7v27.1
	h-4.6v-33.5c-2.3,0.8-4.7,1.7-7,2.6v31h-4.6v-29.1c-2.4,1-4.7,2.1-6.9,3.2V243h-4.6v-23.5c-2.4,1.3-4.7,2.5-6.9,3.9v19.7h-4.6v-16.7
	c-2.5,1.6-4.7,3.3-6.9,5v11.8h-4.6V235c-2.4,2.2-4.7,4.5-6.9,7v0.9h-8.1v10.4h-3.4v28.8c1.3,5.4,3.6,10.5,6.8,15.3v-17.9h4.7v24.1
	c2.1,2.5,4.4,4.8,6.9,7v-31.1h4.6v35c2.1,1.7,4.5,3.4,6.9,5v-39.9h4.6v42.8c2.2,1.3,4.5,2.6,6.9,3.9v-46.7h4.6v49
	c2.3,1.1,4.6,2.1,6.9,3.2v-52.2h4.6v54.1c2.3,0.9,4.6,1.8,7,2.6v-56.7h4.6v58.3c2.3,0.8,4.6,1.5,7,2.2v-60.5h4.6v61.7
	c2.3,0.6,4.6,1.2,7,1.8v-63.4h4.6v64.5c2.3,0.5,4.6,1,7,1.4v-65.9h4.5v66.7c2.3,0.4,4.7,0.8,7,1.1v-67.8h4.5v68.4
	c2.3,0.3,4.7,0.6,7.1,0.8v-69.2h4.4V349c2.3,0.2,4.7,0.4,7.1,0.5v-70.1h4.4v70.4c2.4,0.1,4.7,0.2,7.1,0.3v-70.7h4.4v70.7
	c2.4,0,4.8,0,7.2,0v-70.7h4.4V350c2.4,0,4.7-0.2,7.1-0.3v-70.4h4.4v70.1c2.4-0.2,4.7-0.3,7.1-0.5v-69.6h4.4v69.2
	c2.4-0.2,4.7-0.5,7.1-0.8v-68.4h4.5v67.8c2.4-0.3,4.7-0.7,7-1.1v-66.7h4.5v65.8c2.4-0.5,4.7-0.9,7-1.4v-64.4h4.6v63.4
	c2.3-0.6,4.7-1.2,7-1.8v-61.7h4.6v60.4c2.3-0.7,4.7-1.3,7-2.1v-58.2h4.6V336c2.3-0.8,4.7-1.7,7-2.6v-54h4.6v52.2
	c2.4-1,4.7-2.1,6.9-3.2v-49h4.6v46.7c2.4-1.3,4.7-2.6,6.9-3.9v-42.8h4.6v39.9c2.4-1.6,4.7-3.3,6.9-5v-34.9h4.6v31
	c2.5-2.2,4.8-4.5,6.9-7v-24h4.6v17.9c3.2-4.8,5.5-10,6.8-15.4v-26.2L435,255.7z"/>
<linearGradient id="SVGID_00000121994557433717263160000011899363760621013129_" gradientUnits="userSpaceOnUse" x1="14440.166" y1="27457.9473" x2="29498.166" y2="55608.5977" gradientTransform="matrix(1 0 0 1 194 -376)">
	<stop  offset="0" style="stop-color:#654CB2"/>
	<stop  offset="2.000000e-02" style="stop-color:#40DDDA"/>
	<stop  offset="9.000000e-02" style="stop-color:#3AAEC0"/>
	<stop  offset="0.17" style="stop-color:#3484A9"/>
	<stop  offset="0.26" style="stop-color:#2F6195"/>
	<stop  offset="0.35" style="stop-color:#2B4486"/>
	<stop  offset="0.44" style="stop-color:#282E79"/>
	<stop  offset="0.54" style="stop-color:#261E71"/>
	<stop  offset="0.66" style="stop-color:#24156C"/>
	<stop  offset="0.82" style="stop-color:#24126A"/>
</linearGradient>
<path style="fill:url(#SVGID_00000121994557433717263160000011899363760621013129_);" d="M284.6,333.1c85.2,0,154.2-34.6,154.2-77.4
	c0-42.7-69-77.4-154.2-77.4s-154.2,34.6-154.2,77.4C130.4,298.4,199.4,333.1,284.6,333.1z"/>
<path class="st30" d="M284.7,178.2c-34.9,0-69.9,5.9-98.3,17.8l-46,86.9c7.5,10,19.2,19.4,35.2,27.4c10.3,5.1,21.3,9.3,32.6,12.5
	L284.7,178.2z"/>
<path class="st30" d="M327.9,181.4l-79.1,149.5c19.1,2.3,38.5,2.7,57.7,1.3l72.8-137.6C362.9,188.3,345.6,183.9,327.9,181.4z"/>
<g class="st31">
	
		<linearGradient id="SVGID_00000170960233643890312010000017492467718393033125_" gradientUnits="userSpaceOnUse" x1="72.2376" y1="526.13" x2="130.4306" y2="860.689" gradientTransform="matrix(1 0 0 1 194 -376)">
		<stop  offset="0" style="stop-color:#42E8E0"/>
		<stop  offset="2.000000e-02" style="stop-color:#40DDDA"/>
		<stop  offset="9.000000e-02" style="stop-color:#3AAEC0"/>
		<stop  offset="0.17" style="stop-color:#3484A9"/>
		<stop  offset="0.26" style="stop-color:#2F6195"/>
		<stop  offset="0.35" style="stop-color:#2B4486"/>
		<stop  offset="0.44" style="stop-color:#282E79"/>
		<stop  offset="0.54" style="stop-color:#261E71"/>
		<stop  offset="0.66" style="stop-color:#24156C"/>
		<stop  offset="0.82" style="stop-color:#24126A"/>
	</linearGradient>
	
		<path style="opacity:5.000000e-02;fill:url(#SVGID_00000170960233643890312010000017492467718393033125_);enable-background:new    ;" d="
		M284.6,324.2c75.4,0,136.6-30.7,136.6-68.5s-61.1-68.5-136.6-68.5c-75.4,0-136.6,30.7-136.6,68.5S209.2,324.2,284.6,324.2z"/>
	<g class="st31">
		<path class="st33" d="M40.7,255.4l-1.5-0.7l237.9-119.4l1.5,0.7L40.7,255.4z"/>
		<path class="st33" d="M44.9,257.5l-1.5-0.7l237.9-119.4l1.5,0.7L44.9,257.5z"/>
		<path class="st33" d="M49.1,259.6l-1.5-0.7l237.9-119.4l1.5,0.7L49.1,259.6z"/>
		<path class="st33" d="M53.3,261.7l-1.5-0.7l237.9-119.4l1.5,0.7L53.3,261.7z"/>
		<path class="st33" d="M57.5,263.8l-1.5-0.7l237.9-119.4l1.5,0.7L57.5,263.8z"/>
		<path class="st33" d="M61.6,265.9l-1.5-0.7L298,145.8l1.5,0.7L61.6,265.9z"/>
		<path class="st33" d="M65.8,268l-1.5-0.7l238-119.4l1.4,0.7L65.8,268z"/>
		<path class="st33" d="M70,270.1l-1.5-0.7l238-119.4l1.4,0.7L70,270.1z"/>
		<path class="st33" d="M74.2,272.2l-1.5-0.7l237.9-119.4l1.4,0.7L74.2,272.2z"/>
		<path class="st33" d="M78.4,274.3l-1.5-0.7l237.9-119.4l1.4,0.7L78.4,274.3z"/>
		<path class="st33" d="M82.6,276.4l-1.4-0.7l237.9-119.4l1.4,0.7L82.6,276.4z"/>
		<path class="st33" d="M86.8,278.5l-1.4-0.7l237.9-119.4l1.4,0.7L86.8,278.5z"/>
		<path class="st33" d="M91,280.6l-1.4-0.7l237.9-119.4l1.4,0.7L91,280.6z"/>
		<path class="st33" d="M95.2,282.7l-1.4-0.7l237.9-119.4l1.4,0.7L95.2,282.7z"/>
		<path class="st33" d="M99.4,284.8l-1.4-0.7l237.9-119.4l1.4,0.7L99.4,284.8z"/>
		<path class="st33" d="M103.6,286.9l-1.5-0.7L340,166.8l1.5,0.7L103.6,286.9z"/>
		<path class="st33" d="M107.7,289l-1.5-0.7l237.9-119.4l1.5,0.7L107.7,289z"/>
		<path class="st33" d="M111.9,291.1l-1.5-0.7l238-119.4l1.5,0.7L111.9,291.1z"/>
		<path class="st33" d="M116.1,293.2l-1.5-0.7l237.9-119.4l1.5,0.7L116.1,293.2z"/>
		<path class="st33" d="M120.3,295.4l-1.5-0.7l237.9-119.4l1.5,0.7L120.3,295.4z"/>
		<path class="st33" d="M124.5,297.4l-1.5-0.7l237.9-119.4l1.5,0.7L124.5,297.4z"/>
		<path class="st33" d="M128.7,299.6l-1.5-0.7l237.9-119.4l1.5,0.7L128.7,299.6z"/>
		<path class="st33" d="M132.9,301.7l-1.5-0.7l237.9-119.5l1.5,0.7L132.9,301.7z"/>
		<path class="st33" d="M137.1,303.8l-1.5-0.7l237.9-119.4l1.5,0.7L137.1,303.8z"/>
		<path class="st33" d="M141.3,305.9l-1.5-0.7l237.9-119.4l1.5,0.7L141.3,305.9z"/>
		<path class="st33" d="M145.5,308l-1.5-0.7l237.9-119.4l1.4,0.7L145.5,308z"/>
		<path class="st33" d="M149.7,310.1l-1.5-0.7L386.1,190l1.4,0.7L149.7,310.1z"/>
		<path class="st33" d="M153.8,312.2l-1.4-0.7l237.9-119.4l1.4,0.7L153.8,312.2z"/>
		<path class="st33" d="M158,314.3l-1.4-0.7l237.9-119.4l1.4,0.7L158,314.3z"/>
		<path class="st33" d="M162.2,316.4l-1.4-0.7l237.9-119.4l1.4,0.7L162.2,316.4z"/>
		<path class="st33" d="M166.4,318.5l-1.4-0.7l237.9-119.4l1.4,0.7L166.4,318.5z"/>
		<path class="st33" d="M170.6,320.6l-1.4-0.7l237.9-119.4l1.4,0.7L170.6,320.6z"/>
		<path class="st33" d="M174.8,322.7l-1.4-0.7l237.9-119.4l1.5,0.7L174.8,322.7z"/>
		<path class="st33" d="M179,324.8l-1.4-0.7l237.9-119.4l1.4,0.7L179,324.8z"/>
		<path class="st33" d="M183.2,326.9l-1.4-0.7l237.9-119.4l1.5,0.7L183.2,326.9z"/>
		<path class="st33" d="M187.4,329l-1.4-0.7l237.9-119.4l1.5,0.7L187.4,329z"/>
		<path class="st33" d="M191.6,331.1l-1.5-0.7L428,211l1.5,0.7L191.6,331.1z"/>
		<path class="st33" d="M195.8,333.2l-1.5-0.7l237.9-119.4l1.5,0.7L195.8,333.2z"/>
		<path class="st33" d="M200,335.3l-1.5-0.7l237.9-119.4l1.5,0.7L200,335.3z"/>
		<path class="st33" d="M204.2,337.4l-1.5-0.7l237.9-119.4l1.5,0.7L204.2,337.4z"/>
		<path class="st33" d="M208.3,339.5l-1.5-0.7l237.9-119.4l1.5,0.7L208.3,339.5z"/>
		<path class="st33" d="M212.5,341.6l-1.5-0.7l237.9-119.4l1.5,0.7L212.5,341.6z"/>
		<path class="st33" d="M216.7,343.7l-1.4-0.7l237.9-119.4l1.5,0.7L216.7,343.7z"/>
		<path class="st33" d="M220.9,345.8l-1.5-0.7l237.9-119.4l1.5,0.7L220.9,345.8z"/>
		<path class="st33" d="M225.1,347.9l-1.5-0.7l237.9-119.4l1.5,0.7L225.1,347.9z"/>
		<path class="st33" d="M229.3,350l-1.5-0.7l237.9-119.4l1.5,0.7L229.3,350z"/>
		<path class="st33" d="M233.5,352.1l-1.5-0.7L469.9,232l1.5,0.7L233.5,352.1z"/>
		<path class="st33" d="M237.7,354.2l-1.5-0.7l237.9-119.4l1.4,0.7L237.7,354.2z"/>
		<path class="st33" d="M241.9,356.3l-1.5-0.7l237.9-119.4l1.4,0.7L241.9,356.3z"/>
		<path class="st33" d="M246.1,358.5l-1.4-0.7l237.9-119.4l1.4,0.7L246.1,358.5z"/>
		<path class="st33" d="M250.2,360.6l-1.4-0.7l237.9-119.4l1.4,0.7L250.2,360.6z"/>
		<path class="st33" d="M254.4,362.7L253,362l237.9-119.4l1.4,0.7L254.4,362.7z"/>
		<path class="st33" d="M258.6,364.8l-1.4-0.7l237.9-119.4l1.4,0.7L258.6,364.8z"/>
		<path class="st33" d="M262.8,366.9l-1.4-0.7l237.9-119.4l1.4,0.7L262.8,366.9z"/>
		<path class="st33" d="M267,369l-1.5-0.7l237.9-119.4l1.5,0.7L267,369z"/>
		<path class="st33" d="M271.2,371.1l-1.5-0.7L507.6,251l1.5,0.7L271.2,371.1z"/>
		<path class="st33" d="M275.4,373.2l-1.5-0.7l237.9-119.4l1.5,0.7L275.4,373.2z"/>
		<path class="st33" d="M279.6,375.3l-1.5-0.7L516,255.2l1.5,0.7L279.6,375.3z"/>
		<path class="st33" d="M283.8,377.4l-1.5-0.7l237.9-119.4l1.5,0.7L283.8,377.4z"/>
		<path class="st33" d="M288,379.5l-1.5-0.7l237.9-119.4l1.5,0.7L288,379.5z"/>
		<path class="st33" d="M292.2,381.6l-1.5-0.7l237.9-119.4l1.5,0.7L292.2,381.6z"/>
	</g>
</g>
<linearGradient id="SVGID_00000063635236471952612990000015943206715308053928_" gradientUnits="userSpaceOnUse" x1="-45.8862" y1="598.55" x2="227.1745" y2="598.55" gradientTransform="matrix(1 0 0 1 194 -376)">
	<stop  offset="0" style="stop-color:#2B237C"/>
	<stop  offset="1" style="stop-color:#180D5B"/>
</linearGradient>
<path style="fill:url(#SVGID_00000063635236471952612990000015943206715308053928_);" d="M188.1,211.8c53.4-26.8,139.8-26.8,193.1,0
	c25.5,12.8,38.8,29.4,39.9,46.2c1.2-18.3-12.1-36.8-39.9-50.8c-53.4-26.8-139.8-26.8-193.1,0c-27.8,14-41.2,32.5-39.9,50.8
	C149.3,241.2,162.6,224.6,188.1,211.8z"/>
<linearGradient id="SVGID_00000107549191197448666290000007042001338337775237_" gradientUnits="userSpaceOnUse" x1="112.751" y1="2253.6724" x2="115.7911" y2="2304.6323" gradientTransform="matrix(1 0 0 1 194 -376)">
	<stop  offset="0" style="stop-color:#2B237D"/>
	<stop  offset="2.000000e-02" style="stop-color:#40DDDA"/>
	<stop  offset="9.000000e-02" style="stop-color:#3AAEC0"/>
	<stop  offset="0.17" style="stop-color:#3484A9"/>
	<stop  offset="0.26" style="stop-color:#2F6195"/>
	<stop  offset="0.35" style="stop-color:#2B4486"/>
	<stop  offset="0.44" style="stop-color:#282E79"/>
	<stop  offset="0.54" style="stop-color:#261E71"/>
	<stop  offset="0.66" style="stop-color:#24156C"/>
	<stop  offset="0.82" style="stop-color:#24126A"/>
</linearGradient>
<path style="fill:url(#SVGID_00000107549191197448666290000007042001338337775237_);" d="M204.9,223.8v7l7-3.5L204.9,223.8z"/>
<linearGradient id="SVGID_00000176729595190022233270000010315671334698967481_" gradientUnits="userSpaceOnUse" x1="127.9266" y1="2192.0469" x2="130.8766" y2="2243.0071" gradientTransform="matrix(1 0 0 1 194 -376)">
	<stop  offset="0" style="stop-color:#2C247E"/>
	<stop  offset="2.000000e-02" style="stop-color:#40DDDA"/>
	<stop  offset="9.000000e-02" style="stop-color:#3AAEC0"/>
	<stop  offset="0.17" style="stop-color:#3484A9"/>
	<stop  offset="0.26" style="stop-color:#2F6195"/>
	<stop  offset="0.35" style="stop-color:#2B4486"/>
	<stop  offset="0.44" style="stop-color:#282E79"/>
	<stop  offset="0.54" style="stop-color:#261E71"/>
	<stop  offset="0.66" style="stop-color:#24156C"/>
	<stop  offset="0.82" style="stop-color:#24126A"/>
</linearGradient>
<path style="fill:url(#SVGID_00000176729595190022233270000010315671334698967481_);" d="M225.9,213.3v7l7.1-3.5L225.9,213.3z"/>
<linearGradient id="SVGID_00000105408748782626508040000005062593063902341761_" gradientUnits="userSpaceOnUse" x1="268.7095" y1="2617.0947" x2="274.3295" y2="2689.0146" gradientTransform="matrix(1 0 0 1 194 -376)">
	<stop  offset="0" style="stop-color:#2B237C"/>
	<stop  offset="1" style="stop-color:#180D5B"/>
</linearGradient>
<path style="fill:url(#SVGID_00000105408748782626508040000005062593063902341761_);" d="M308.7,227.4v8.4l-6.3-3.4L308.7,227.4z"/>
<path class="st38" d="M286.5,191.2c-5.4,0.1-10.7-1-15.5-3.2c-4.3-2.1-6.7-5.1-6.7-8.2s2.4-6,6.7-8.2c8.5-4.3,22.4-4.3,30.9,0
	c4.3,2.2,6.6,5.1,6.6,8.2s-2.4,6-6.6,8.2C297.2,190.2,291.9,191.3,286.5,191.2z M286.5,169.9c-5.1-0.1-10.1,1-14.6,3
	c-3.7,1.9-5.8,4.3-5.8,6.9s2.1,5,5.8,6.9c8,4,21.2,4,29.2,0c3.7-1.9,5.8-4.3,5.8-6.9s-2.1-5-5.8-6.9
	C296.6,170.8,291.6,169.8,286.5,169.9z"/>
<path class="st39" d="M295.7,184.4c-2.8,1.3-6,1.9-9.1,1.9c-3.2,0-6.3-0.7-9.1-1.9c-5.1-2.5-5.1-6.6,0-9.2c2.8-1.3,6-1.9,9.1-1.9
	c3.2,0,6.3,0.7,9.1,1.9C300.7,177.7,300.7,181.9,295.7,184.4z"/>
<path class="st38" d="M339.9,157.5l-9.1-4.5l15.4-7.8l9.1,4.5L339.9,157.5z"/>
<path class="st40" d="M323.6,150.4l-11.4-2.9l9.9-9.8l11.4,2.9L323.6,150.4z"/>
<path class="st41" d="M303.7,146l-12.7-1l3.4-10.8l12.7,1L303.7,146z"/>
<path class="st42" d="M282,145l-12.7,1l-3.4-10.8l12.7-1L282,145z"/>
<path class="st43" d="M260.8,147.4l-11.4,2.9l-9.9-9.8l11.4-2.9L260.8,147.4z"/>
<path class="st44" d="M242.2,153l-9.1,4.5l-15.4-7.8l9.1-4.5L242.2,153z"/>
<path class="st43" d="M309.6,169.8l-3.2-1.6l23-11.6l3.2,1.6L309.6,169.8z"/>
<path class="st42" d="M302.3,166.7l-4-1l14.8-14.6l4,1L302.3,166.7z"/>
<path class="st41" d="M293.5,164.9l-4.5-0.4l5.1-16.2l4.5,0.4L293.5,164.9z"/>
<path class="st40" d="M284,164.5l-4.5,0.4l-5.1-16.2l4.5-0.4L284,164.5z"/>
<path class="st38" d="M274.7,165.7l-4,1l-14.8-14.6l4-1L274.7,165.7z"/>
<path class="st38" d="M266.6,168.2l-3.2,1.6l-23-11.6l3.2-1.6L266.6,168.2z"/>
<path class="st38" d="M260.4,171.9l-2,2l-29-7.4l2-2L260.4,171.9z"/>
<path class="st38" d="M256.8,176.3l-0.7,2.2l-32.2-2.6l0.7-2.2L256.8,176.3z"/>
<path class="st38" d="M256.1,181.1l0.7,2.2l-32.2,2.6l-0.7-2.2L256.1,181.1z"/>
<path class="st38" d="M258.4,185.7l2,2l-29,7.4l-2-2L258.4,185.7z"/>
<path class="st38" d="M263.4,189.8l3.2,1.6l-23,11.6l-3.2-1.6L263.4,189.8z"/>
<path class="st45" d="M377,142.2c33.9,20.5,35.8,49.8,5.7,71.4l12.2,9.8c41.5-25.9,40.6-63.3-2.7-88.8L377,142.2z"/>
<path class="st39" d="M149,189.7l20.7-3.6c-3.7-17.1,7.6-34.9,33.7-48c43.2-21.7,111.8-22.9,157.9-3.8l15.2-7.6
	c-54.6-23.4-136.6-22.1-188.2,3.8C156.1,146.6,143.1,168.7,149,189.7z"/>
<g>
	<g>
		<defs>
			<polygon id="SVGID_00000003101737884382501790000006268952048282619785_" points="190.4,266 271.3,203.1 392.1,252.3 
				311.3,315.1 			"/>
		</defs>
		<clipPath id="SVGID_00000030480694080567264150000012419518354838036911_">
			<use xlink:href="#SVGID_00000003101737884382501790000006268952048282619785_"  style="overflow:visible;"/>
		</clipPath>
		<g style="clip-path:url(#SVGID_00000030480694080567264150000012419518354838036911_);">
			
				<linearGradient id="SVGID_00000165222015203663852480000012161814749608575670_" gradientUnits="userSpaceOnUse" x1="3540.3538" y1="-5959.8516" x2="12543.9521" y2="-23254.9297" gradientTransform="matrix(1 0 0 1 194 -376)">
				<stop  offset="0" style="stop-color:#654DB3"/>
				<stop  offset="8.989999e-02" style="stop-color:#40DDDA"/>
				<stop  offset="9.000000e-02" style="stop-color:#E9E9FE"/>
				<stop  offset="0.17" style="stop-color:#654DB3"/>
				<stop  offset="0.26" style="stop-color:#2F6195"/>
				<stop  offset="0.35" style="stop-color:#2B4486"/>
				<stop  offset="0.44" style="stop-color:#282E79"/>
				<stop  offset="0.54" style="stop-color:#261E71"/>
				<stop  offset="0.66" style="stop-color:#24156C"/>
				<stop  offset="0.82" style="stop-color:#24126A"/>
			</linearGradient>
			<path style="fill:url(#SVGID_00000165222015203663852480000012161814749608575670_);stroke:#AAC4F9;" d="M248.7,253.5
				L248.7,253.5c0.9-3.1,3.1-6.2,6.7-9c10.9-8.5,30.4-11.1,43.5-5.8c12.9,5.3,14.7,16.3,4.2,24.7l-11.1-4.5
				c5.4-4.5,4.3-10.2-2.4-12.9c-6.9-2.8-17.2-1.4-23,3.1s-4.9,10.4,2,13.3l71.3,29l-0.8,0.1v0.4v-0.4l-19.7,2.6l-60.1-24.5
				C250.5,266,246.9,259.8,248.7,253.5z"/>
			
				<linearGradient id="SVGID_00000067203397660762377400000001414342604787285181_" gradientUnits="userSpaceOnUse" x1="3582.7014" y1="-7969.77" x2="7636.4004" y2="-17937.1406" gradientTransform="matrix(1 0 0 1 194 -376)">
				<stop  offset="0" style="stop-color:#2B237C"/>
				<stop  offset="1" style="stop-color:#180D5B"/>
			</linearGradient>
			<path style="fill:url(#SVGID_00000067203397660762377400000001414342604787285181_);" d="M230.8,234.6
				c-7.4,5.7-11.9,12-13.7,18.3c-1.2,4-1.2,8-0.2,11.9c2.2,8.3,9.6,15.9,21.8,20.8l36.2,14.7l22.2-2.9l-48.3-19.6
				c-10.7-4.4-16.4-11.3-16.9-18.8c-0.2-3.5,0.8-7.2,3-10.8c1.8-3,4.5-5.9,8-8.7c16.7-13,46.5-17,66.5-8.8
				c20,8.1,22.6,25.3,5.9,38.3l12.1,4.9c22.3-17.4,18.8-40.2-7.9-51.1C292.9,211.9,253.2,217.2,230.8,234.6z"/>
		</g>
	</g>
</g>
<path class="st45" d="M297.6,230.7l-8.1-4.1l71.9-36.1l8.1,4.1L297.6,230.7z"/>
<path class="st49" d="M309.7,236.8l-8.1-4.1l56-28.1l8.1,4.1L309.7,236.8z"/>
<path class="st50" d="M285.3,224.6l-8.1-4.1l45.2-22.7l8.1,4.1L285.3,224.6z"/>
<path class="st39" d="M273.8,218.8l-8.1-4.1l103.9-52.2l8.1,4.1L273.8,218.8z"/>
</svg>
