<svg width="91" height="91" viewBox="0 0 91 91" fill="none" xmlns="http://www.w3.org/2000/svg">
<circle opacity="0.1" cx="45.5" cy="45.5" r="45.5" fill="#AB21EC"/>
<g clip-path="url(#clip0_507_10918)">
<path d="M39.0381 45.1119C37.9781 42.4681 37.8635 39.5394 38.7137 36.8208C39.5638 34.1022 41.3265 31.7605 43.7038 30.1916C46.0812 28.6226 48.9273 27.9226 51.7612 28.2099C54.5951 28.4972 57.2428 29.7541 59.257 31.7682C61.2711 33.7824 62.528 36.4301 62.8153 39.264C63.1025 42.0979 62.4025 44.944 60.8336 47.3214C59.2646 49.6987 56.9229 51.4614 54.2044 52.3115C51.4858 53.1616 48.5571 53.047 45.9132 51.9871L45.9134 51.9868L43.6501 54.25H39.5251V58.375H35.4001V62.5H28.5251V55.625L39.0384 45.1118L39.0381 45.1119Z" stroke="#AB21EC" stroke-width="1.62615" stroke-linecap="round" stroke-linejoin="round"/>
<path opacity="0.5" d="M53.9621 37.7501C54.3418 37.7501 54.6496 37.4423 54.6496 37.0626C54.6496 36.6829 54.3418 36.3751 53.9621 36.3751C53.5824 36.3751 53.2746 36.6829 53.2746 37.0626C53.2746 37.4423 53.5824 37.7501 53.9621 37.7501Z" stroke="#AB21EC" stroke-width="1.62615" stroke-linecap="round" stroke-linejoin="round"/>
<path d="M53.9619 39.125C55.101 39.125 56.0244 38.2016 56.0244 37.0625C56.0244 35.9234 55.101 35 53.9619 35C52.8229 35 51.8994 35.9234 51.8994 37.0625C51.8994 38.2016 52.8229 39.125 53.9619 39.125Z" fill="#AB21EC"/>
</g>
<defs>
<clipPath id="clip0_507_10918">
<rect width="44" height="44" fill="white" transform="translate(23.0244 24)"/>
</clipPath>
</defs>
</svg>
