<svg width="91" height="91" viewBox="0 0 91 91" fill="none" xmlns="http://www.w3.org/2000/svg">
<circle opacity="0.1" cx="45.5" cy="45.5" r="45.5" fill="#58BD7D"/>
<path d="M47.925 53.7917H44.4784C42.04 53.7917 40.0417 51.7383 40.0417 49.2083C40.0417 48.4567 40.665 47.8333 41.4167 47.8333C42.1683 47.8333 42.7917 48.4567 42.7917 49.2083C42.7917 50.2167 43.5434 51.0417 44.4784 51.0417H47.925C48.64 51.0417 49.2083 50.4 49.2083 49.6117C49.2083 48.6217 48.9334 48.475 48.31 48.255L42.7917 46.33C41.6183 45.9266 40.0417 45.065 40.0417 42.37C40.0417 40.0783 41.8567 38.19 44.075 38.19H47.5216C49.96 38.19 51.9583 40.2433 51.9583 42.7733C51.9583 43.525 51.335 44.1483 50.5833 44.1483C49.8317 44.1483 49.2083 43.525 49.2083 42.7733C49.2083 41.765 48.4566 40.94 47.5216 40.94H44.075C43.36 40.94 42.7917 41.5817 42.7917 42.37C42.7917 43.36 43.0667 43.5066 43.69 43.7266L49.2083 45.6517C50.3817 46.055 51.9583 46.9167 51.9583 49.6117C51.9583 51.9217 50.1433 53.7917 47.925 53.7917Z" fill="#58BD7D"/>
<path d="M46 55.625C45.2483 55.625 44.625 55.0017 44.625 54.25V37.75C44.625 36.9983 45.2483 36.375 46 36.375C46.7517 36.375 47.375 36.9983 47.375 37.75V54.25C47.375 55.0017 46.7517 55.625 46 55.625Z" fill="#58BD7D"/>
<path d="M46 65.7084C35.1283 65.7084 26.2917 56.8717 26.2917 46C26.2917 35.1284 35.1283 26.2917 46 26.2917C46.7517 26.2917 47.375 26.915 47.375 27.6667C47.375 28.4184 46.7517 29.0417 46 29.0417C36.65 29.0417 29.0417 36.65 29.0417 46C29.0417 55.35 36.65 62.9584 46 62.9584C55.35 62.9584 62.9583 55.35 62.9583 46C62.9583 45.2484 63.5817 44.625 64.3333 44.625C65.085 44.625 65.7083 45.2484 65.7083 46C65.7083 56.8717 56.8717 65.7084 46 65.7084Z" fill="#58BD7D"/>
<path d="M62.5 38.2083H55.1667C54.415 38.2083 53.7917 37.585 53.7917 36.8333V29.5C53.7917 28.7483 54.415 28.125 55.1667 28.125C55.9183 28.125 56.5417 28.7483 56.5417 29.5V35.4583H62.5C63.2517 35.4583 63.875 36.0817 63.875 36.8333C63.875 37.585 63.2517 38.2083 62.5 38.2083Z" fill="#58BD7D"/>
<path d="M55.1666 38.2083C54.8182 38.2083 54.4699 38.08 54.1949 37.805C53.6632 37.2733 53.6632 36.3933 54.1949 35.8617L63.3616 26.695C63.8932 26.1633 64.7732 26.1633 65.3049 26.695C65.8366 27.2267 65.8366 28.1067 65.3049 28.6383L56.1382 37.805C55.8632 38.08 55.5149 38.2083 55.1666 38.2083Z" fill="#58BD7D"/>
</svg>
