<svg width="91" height="91" viewBox="0 0 91 91" fill="none" xmlns="http://www.w3.org/2000/svg">
<g opacity="0.1" filter="url(#filter0_b_507_10861)">
<circle cx="45.5" cy="45.5" r="45.5" fill="#D33535"/>
</g>
<path d="M51.4756 65.7084H40.4756C30.5206 65.7084 26.2672 61.455 26.2672 51.5V40.5C26.2672 30.545 30.5206 26.2917 40.4756 26.2917H51.4756C61.4306 26.2917 65.6839 30.545 65.6839 40.5V51.5C65.6839 61.455 61.4306 65.7084 51.4756 65.7084ZM40.4756 29.0417C32.0239 29.0417 29.0172 32.0484 29.0172 40.5V51.5C29.0172 59.9517 32.0239 62.9584 40.4756 62.9584H51.4756C59.9272 62.9584 62.9339 59.9517 62.9339 51.5V40.5C62.9339 32.0484 59.9272 29.0417 51.4756 29.0417H40.4756Z" fill="#D33535"/>
<path d="M55.1423 56.0834H49.459C48.909 56.0834 48.414 55.7718 48.194 55.2584C47.974 54.7451 48.0656 54.1767 48.4323 53.7733L51.4023 50.4916C52.6306 49.1166 53.3273 47.3751 53.3273 45.5784C53.3273 43.7451 52.5756 42.0217 51.2006 40.72C49.8256 39.4183 47.9189 38.6667 45.9756 38.6667C44.0323 38.6667 42.1256 39.4183 40.7506 40.72C39.3756 42.0217 38.6239 43.7451 38.6239 45.5784C38.6239 47.3751 39.3022 49.1166 40.5489 50.4916L43.5189 53.7733C43.8855 54.1767 43.9772 54.7634 43.7572 55.2584C43.5372 55.7534 43.0422 56.0834 42.4922 56.0834H36.8089C36.0573 56.0834 35.4339 55.46 35.4339 54.7084C35.4339 53.9567 36.0573 53.3334 36.8089 53.3334H39.3939L38.4956 52.3433C36.8089 50.4733 35.8739 48.0717 35.8739 45.5784C35.8739 43.0301 36.9556 40.5184 38.8623 38.7217C40.7689 36.9067 43.2989 35.9167 45.9756 35.9167C48.6523 35.9167 51.1823 36.9067 53.0889 38.7217C54.9773 40.5184 56.0773 43.0301 56.0773 45.5784C56.0773 48.0534 55.1423 50.4549 53.4556 52.3433L52.5573 53.3334H55.1423C55.8939 53.3334 56.5173 53.9567 56.5173 54.7084C56.5173 55.46 55.8939 56.0834 55.1423 56.0834Z" fill="#D33535"/>
<defs>
<filter id="filter0_b_507_10861" x="-14" y="-14" width="119" height="119" filterUnits="userSpaceOnUse" color-interpolation-filters="sRGB">
<feFlood flood-opacity="0" result="BackgroundImageFix"/>
<feGaussianBlur in="BackgroundImageFix" stdDeviation="7"/>
<feComposite in2="SourceAlpha" operator="in" result="effect1_backgroundBlur_507_10861"/>
<feBlend mode="normal" in="SourceGraphic" in2="effect1_backgroundBlur_507_10861" result="shape"/>
</filter>
</defs>
</svg>
