<svg width="91" height="91" viewBox="0 0 91 91" fill="none" xmlns="http://www.w3.org/2000/svg">
<circle opacity="0.1" cx="45.5" cy="45.5" r="45.5" fill="#3772FF"/>
<path d="M49.0313 27.667H44.6313C44.0233 27.667 43.5312 28.1591 43.5312 28.767C43.5312 29.3749 44.0233 29.867 44.6313 29.867H49.0313C49.6392 29.867 50.1313 29.3749 50.1313 28.767C50.1313 28.1591 49.6392 27.667 49.0313 27.667Z" fill="#3772FF"/>
<path d="M53.8008 24H36.2008C33.7749 24 31.8008 25.9742 31.8008 28.4V63.6C31.8008 66.0258 33.7749 68 36.2008 68H53.8008C56.2266 68 58.2008 66.0258 58.2008 63.6V28.4C58.2008 25.9742 56.2266 24 53.8008 24ZM56.0008 63.6C56.0008 64.8152 55.0159 65.8 53.8008 65.8H36.2008C34.9856 65.8 34.0008 64.8152 34.0008 63.6V28.4C34.0008 27.1848 34.9856 26.2 36.2008 26.2H53.8008C55.0159 26.2 56.0008 27.1848 56.0008 28.4V63.6Z" fill="#3772FF"/>
<path d="M45.0008 64.3336C46.2158 64.3336 47.2008 63.3486 47.2008 62.1336C47.2008 60.9186 46.2158 59.9336 45.0008 59.9336C43.7858 59.9336 42.8008 60.9186 42.8008 62.1336C42.8008 63.3486 43.7858 64.3336 45.0008 64.3336Z" fill="#3772FF"/>
<path d="M40.9672 29.867C41.5747 29.867 42.0672 29.3745 42.0672 28.767C42.0672 28.1595 41.5747 27.667 40.9672 27.667C40.3597 27.667 39.8672 28.1595 39.8672 28.767C39.8672 29.3745 40.3597 29.867 40.9672 29.867Z" fill="#3772FF"/>
</svg>
